/* XPM */
static char * bottom_left_active_xpm[] = {
"25 25 5 1",
" 	c None",
".	c #888888",
"+	c #BBBBBB",
"@	c #DDDDDD",
"#	c #FFFFFF",
".+@#                     ",
".+@#                     ",
".+@#                     ",
".+@#                     ",
".+@#                     ",
".+@#                     ",
".+@#                     ",
".+@#                     ",
".+@#                     ",
".+@#                     ",
".+@#                     ",
".+@#                     ",
".+@#                     ",
".+@#                     ",
".+@#                     ",
".+@#                     ",
".+@#                     ",
".+@#                     ",
".+@#                     ",
".+@#                     ",
".+@#                     ",
".+@@#####################",
".++@@@@@@@@@@@@@@@@@@@@@@",
"..+++++++++++++++++++++++",
" ........................"};
