/* XPM */
static char * hide_active_xpm[] = {
"14 23 3 1",
" 	c None",
".	c #DDDDDD",
"+	c #BB9955",
"              ",
"              ",
"              ",
"              ",
"............. ",
"............. ",
"............. ",
"............. ",
"............. ",
"............. ",
"..+++++++++.. ",
"............. ",
"............. ",
"............. ",
"............. ",
"............. ",
"............. ",
"              ",
"              ",
"              ",
"              ",
"              ",
"              "};
