/* XPM */
static char * left_active_xpm[] = {
"4 128 5 1",
" 	c None",
".	c #888888",
"+	c #BBBBBB",
"@	c #DDDDDD",
"#	c #FFFFFF",
".+@#",
".+@#",
".+@#",
".+@#",
".+@#",
".+@#",
".+@#",
".+@#",
".+@#",
".+@#",
".+@#",
".+@#",
".+@#",
".+@#",
".+@#",
".+@#",
".+@#",
".+@#",
".+@#",
".+@#",
".+@#",
".+@#",
".+@#",
".+@#",
".+@#",
".+@#",
".+@#",
".+@#",
".+@#",
".+@#",
".+@#",
".+@#",
".+@#",
".+@#",
".+@#",
".+@#",
".+@#",
".+@#",
".+@#",
".+@#",
".+@#",
".+@#",
".+@#",
".+@#",
".+@#",
".+@#",
".+@#",
".+@#",
".+@#",
".+@#",
".+@#",
".+@#",
".+@#",
".+@#",
".+@#",
".+@#",
".+@#",
".+@#",
".+@#",
".+@#",
".+@#",
".+@#",
".+@#",
".+@#",
".+@#",
".+@#",
".+@#",
".+@#",
".+@#",
".+@#",
".+@#",
".+@#",
".+@#",
".+@#",
".+@#",
".+@#",
".+@#",
".+@#",
".+@#",
".+@#",
".+@#",
".+@#",
".+@#",
".+@#",
".+@#",
".+@#",
".+@#",
".+@#",
".+@#",
".+@#",
".+@#",
".+@#",
".+@#",
".+@#",
".+@#",
".+@#",
".+@#",
".+@#",
".+@#",
".+@#",
".+@#",
".+@#",
".+@#",
".+@#",
".+@#",
".+@#",
".+@#",
".+@#",
".+@#",
".+@#",
".+@#",
".+@#",
".+@#",
".+@#",
".+@#",
".+@#",
".+@#",
".+@#",
".+@#",
".+@#",
".+@#",
".+@#",
".+@#",
".+@#",
".+@#",
".+@#",
".+@#",
".+@#"};
