/* XPM */
static char * maximize_inactive_xpm[] = {
"14 23 3 1",
" 	c None",
".	c #DDDDDD",
"+	c #777777",
"              ",
"              ",
"              ",
"              ",
"............. ",
".+++++++++++. ",
".+.........+. ",
".+.........+. ",
".+.........+. ",
".+.........+. ",
".+.........+. ",
".+.........+. ",
".+.........+. ",
".+.........+. ",
".+.........+. ",
".+++++++++++. ",
"............. ",
"              ",
"              ",
"              ",
"              ",
"              ",
"              "};
