/* XPM */
static char * menu_active_xpm[] = {
"20 20 383 2",
"  	c #E2D192",
". 	c #DBC87E",
"+ 	c #D9C271",
"@ 	c #DBC67C",
"# 	c #DFC67C",
"$ 	c #DDC27B",
"% 	c #D2B370",
"& 	c #CFB57B",
"* 	c #D9C89B",
"= 	c #E4DAB6",
"- 	c #E7E0BF",
"; 	c #E7E0C1",
"> 	c #E7E1C2",
", 	c #E7E1C3",
"' 	c #E8E1C3",
") 	c #ECE6CB",
"! 	c #D7C272",
"~ 	c #D2B962",
"{ 	c #D3B95E",
"] 	c #D8BF6A",
"^ 	c #D6B95B",
"/ 	c #D7B864",
"( 	c #CCA65C",
"_ 	c #C8A25B",
": 	c #D5C08F",
"< 	c #E1D7AF",
"[ 	c #E4DCB8",
"} 	c #E5DDB9",
"| 	c #E5DEBA",
"1 	c #E4DEBA",
"2 	c #E5DDB7",
"3 	c #D7C270",
"4 	c #D2B85A",
"5 	c #D5BA59",
"6 	c #D7BB5F",
"7 	c #DEC268",
"8 	c #DEC06E",
"9 	c #CAA256",
"0 	c #C18D3C",
"a 	c #D2B06E",
"b 	c #E1D0A3",
"c 	c #E3D7AE",
"d 	c #E5DCB6",
"e 	c #E4DFBA",
"f 	c #E5DDB8",
"g 	c #DBC99A",
"h 	c #CEB27A",
"i 	c #E0D1A8",
"j 	c #DEC674",
"k 	c #DDC365",
"l 	c #E3CA6D",
"m 	c #E4CB75",
"n 	c #EBD37E",
"o 	c #E2C577",
"p 	c #CBA45A",
"q 	c #CB9D4E",
"r 	c #D7AE5F",
"s 	c #D8B570",
"t 	c #D6B26B",
"u 	c #DAB875",
"v 	c #DFC890",
"w 	c #E2D1A0",
"x 	c #E4DAB2",
"y 	c #DFD2A5",
"z 	c #CEB67F",
"A 	c #B99A5D",
"B 	c #A5793F",
"C 	c #CDB48A",
"D 	c #EDD98D",
"E 	c #E8D27B",
"F 	c #E4CA71",
"G 	c #DFC26D",
"H 	c #E6C676",
"I 	c #E2BF76",
"J 	c #DDBA74",
"K 	c #DCB771",
"L 	c #DCBA77",
"M 	c #D9BE82",
"N 	c #CEAD69",
"O 	c #C59643",
"P 	c #D0A557",
"Q 	c #D6AF65",
"R 	c #D8B26B",
"S 	c #BC9351",
"T 	c #A87D41",
"U 	c #977041",
"V 	c #98693A",
"W 	c #CFB68C",
"X 	c #CFB66B",
"Y 	c #C0A14F",
"Z 	c #B99B49",
"` 	c #D2B064",
" .	c #E2C27E",
"..	c #E1C383",
"+.	c #DFBD7B",
"@.	c #B49661",
"#.	c #9B875D",
"$.	c #CEB782",
"%.	c #CCAC6C",
"&.	c #BD954A",
"*.	c #CAAC6B",
"=.	c #CDB376",
"-.	c #D0AA62",
";.	c #BD8E45",
">.	c #8C6132",
",.	c #6B472B",
"'.	c #D9C59F",
").	c #AF9358",
"!.	c #A98B46",
"~.	c #BDA059",
"{.	c #E1C482",
"].	c #E5D5A2",
"^.	c #E6D8A9",
"/.	c #D9C28D",
"(.	c #877A5D",
"_.	c #494232",
":.	c #B0955E",
"<.	c #D2AF6B",
"[.	c #C8A562",
"}.	c #CBB178",
"|.	c #C3AB75",
"1.	c #CAA55D",
"2.	c #CAA057",
"3.	c #926C3B",
"4.	c #79552E",
"5.	c #B9935C",
"6.	c #E5DBB7",
"7.	c #B69A60",
"8.	c #B79B58",
"9.	c #D7C082",
"0.	c #E8DBAF",
"a.	c #E8E4C2",
"b.	c #E7E1BB",
"c.	c #DDC58B",
"d.	c #C1A871",
"e.	c #B39D6B",
"f.	c #D8B978",
"g.	c #DAB97A",
"h.	c #DBB877",
"i.	c #A38753",
"j.	c #60533A",
"k.	c #90733F",
"l.	c #CBA65E",
"m.	c #CDA660",
"n.	c #B78D4A",
"o.	c #CCB37F",
"p.	c #E7E4C3",
"q.	c #C6B68B",
"r.	c #CCBC8A",
"s.	c #E7DBAD",
"t.	c #E4DEB8",
"u.	c #E3DAB3",
"v.	c #E3D5A6",
"w.	c #E7D5A2",
"x.	c #D3C9A3",
"y.	c #7D7560",
"z.	c #6A614C",
"A.	c #A18F69",
"B.	c #A79064",
"C.	c #534A36",
"D.	c #8F784E",
"E.	c #CBAD6E",
"F.	c #D1B06D",
"G.	c #CDA75D",
"H.	c #D9C186",
"I.	c #D7D1B3",
"J.	c #DAD0A8",
"K.	c #E7DDB0",
"L.	c #E3DAAE",
"M.	c #E0D6AC",
"N.	c #E2DBB5",
"O.	c #E3DCB8",
"P.	c #DCD6B4",
"Q.	c #A4A291",
"R.	c #2E2C28",
"S.	c #191815",
"T.	c #4F4C3F",
"U.	c #C6B58A",
"V.	c #BCA36B",
"W.	c #CEB57F",
"X.	c #D3C293",
"Y.	c #D1BD8B",
"Z.	c #D0B67A",
"`.	c #D9BC7D",
" +	c #E7E1BF",
".+	c #D8D2B5",
"++	c #DDD1A8",
"@+	c #E6DDB1",
"#+	c #DED1A3",
"$+	c #DCCFA1",
"%+	c #DED2A9",
"&+	c #DDD1AA",
"*+	c #C6BF9D",
"=+	c #86806E",
"-+	c #403C33",
";+	c #2A2821",
">+	c #5D5747",
",+	c #BEB08B",
"'+	c #CDB98B",
")+	c #CCBB90",
"!+	c #D3C7A2",
"~+	c #D5C79E",
"{+	c #D4C28F",
"]+	c #D9BE81",
"^+	c #E8DFBC",
"/+	c #CDC6A5",
"(+	c #D8C99B",
"_+	c #E3D8AA",
":+	c #DED2A5",
"<+	c #DED2A6",
"[+	c #DED2A8",
"}+	c #C4B894",
"|+	c #7C7157",
"1+	c #473F32",
"2+	c #312C24",
"3+	c #373128",
"4+	c #837555",
"5+	c #BAA678",
"6+	c #C9B68D",
"7+	c #CDC09A",
"8+	c #D2C6A0",
"9+	c #D3C59B",
"0+	c #D3C192",
"a+	c #D5BA7D",
"b+	c #E7D9B1",
"c+	c #BEB485",
"d+	c #D3C08C",
"e+	c #E2D4A3",
"f+	c #E1D5A6",
"g+	c #E3D8AC",
"h+	c #DFD3AA",
"i+	c #78715B",
"j+	c #2A1F19",
"k+	c #2F221E",
"l+	c #251D1A",
"m+	c #272119",
"n+	c #6A5D3F",
"o+	c #B19B6C",
"p+	c #C1AB7F",
"q+	c #CBBB93",
"r+	c #CBBB8E",
"s+	c #CAB88A",
"t+	c #CBB47F",
"u+	c #CDAD6B",
"v+	c #E5D6AE",
"w+	c #CABD95",
"x+	c #D1BC88",
"y+	c #E2CF9C",
"z+	c #E1D3A5",
"A+	c #E1D4A7",
"B+	c #D9CEA6",
"C+	c #595344",
"D+	c #52362D",
"E+	c #5C3F37",
"F+	c #4E3933",
"G+	c #2C201D",
"H+	c #3E3628",
"I+	c #AF996E",
"J+	c #C1AD80",
"K+	c #C9B78C",
"L+	c #C9B789",
"M+	c #C8B380",
"N+	c #C2A260",
"O+	c #C7A25B",
"P+	c #E5D8B0",
"Q+	c #CFC39E",
"R+	c #CFBB89",
"S+	c #DEC78F",
"T+	c #E0D0A0",
"U+	c #DCCC9B",
"V+	c #D0C299",
"W+	c #61574A",
"X+	c #734C40",
"Y+	c #6E473E",
"Z+	c #6C463D",
"`+	c #362521",
" @	c #5C503A",
".@	c #B9A478",
"+@	c #C4B288",
"@@	c #C9B68B",
"#@	c #C9B381",
"$@	c #C1A161",
"%@	c #B88A3E",
"&@	c #C1964E",
"*@	c #E4D3AC",
"=@	c #E3D8AD",
"-@	c #DFC78C",
";@	c #DDC994",
">@	c #D9C693",
",@	c #8F7A65",
"'@	c #85584D",
")@	c #6C483F",
"!@	c #6B463D",
"~@	c #3F3126",
"{@	c #917E58",
"]@	c #BEA87A",
"^@	c #C3B184",
"/@	c #C1AC79",
"(@	c #BC9954",
"_@	c #B5863B",
":@	c #B17E37",
"<@	c #BF944A",
"[@	c #E4D2A7",
"}@	c #ECE5BE",
"|@	c #E8D9A7",
"1@	c #DDC180",
"2@	c #DAC285",
"3@	c #D9C691",
"4@	c #C9B887",
"5@	c #9A866B",
"6@	c #8C5F52",
"7@	c #885B4F",
"8@	c #7F5A47",
"9@	c #746245",
"0@	c #B69F6E",
"a@	c #BEA776",
"b@	c #C1AA77",
"c@	c #BFA05F",
"d@	c #B38039",
"e@	c #AC7331",
"f@	c #B2863F",
"g@	c #C49E58",
"h@	c #E7D6A8",
"i@	c #ECE0B5",
"j@	c #E7D7A3",
"k@	c #DFC68B",
"l@	c #D9BE7F",
"m@	c #D5BD85",
"n@	c #D1BC87",
"o@	c #978B6B",
"p@	c #6D5749",
"q@	c #6E4E42",
"r@	c #876C4C",
"s@	c #A89264",
"t@	c #B8A06C",
"u@	c #BCA36D",
"v@	c #BFA368",
"w@	c #BC974E",
"x@	c #B27E38",
"y@	c #B48441",
"z@	c #BF9C55",
"A@	c #CDAF70",
"B@	c #E8DDAF",
"C@	c #E9D9AE",
"D@	c #E9D9A7",
"E@	c #E3D29F",
"F@	c #DEC78E",
"G@	c #D3BB82",
"H@	c #C9AF72",
"I@	c #BEA870",
"J@	c #94835D",
"K@	c #897957",
"L@	c #A59060",
"M@	c #B59D66",
"N@	c #B2985D",
"O@	c #B99F61",
"P@	c #C0A366",
"Q@	c #C0A162",
"R@	c #C2A263",
"S@	c #C6AD73",
"T@	c #CBB076",
"U@	c #D4B97D",
"V@	c #EBE0B5",
"W@	c #EBDAB6",
"X@	c #EBDEB3",
"Y@	c #E8E0B7",
"Z@	c #E4D6AA",
"`@	c #DDCB9E",
" #	c #CBB785",
".#	c #BFA871",
"+#	c #BBA36F",
"@#	c #B59E6F",
"##	c #B19A6B",
"$#	c #B49B69",
"%#	c #B59F69",
"&#	c #C2AD79",
"*#	c #CBB686",
"=#	c #CDBC8E",
"-#	c #D4C399",
";#	c #D7C89C",
">#	c #D8C393",
",#	c #DAC28E",
"'#	c #ECE2BC",
"  . + @ # $ % & * = - ; > > > > , , ' ) ",
"! ~ { ] ^ / ( _ : < [ } | 1 1 1 | | 2 ' ",
"3 4 5 6 7 8 9 0 a b c d | | 1 e f g h i ",
"j k l m n o p q r s t u v w x y z A B C ",
"D E F G H I J K L M N O P Q R S T U V W ",
"X Y Z `  ...+.@.#.$.%.&.*.=.-.;.>.,.V '.",
").!.~.{.].^./.(._.:.<.[.}.|.1.2.3.4.5.6.",
"7.8.9.0.a.b.c.d.e.f.g.h.i.j.k.l.m.n.o.p.",
"q.r.s.a.t.u.v.w.x.y.z.A.B.C.D.E.F.G.H.a.",
"I.J.K.L.M.N.O.P.Q.R.S.T.U.V.W.X.Y.Z.`. +",
".+++@+#+$+%+&+*+=+-+;+>+,+'+)+!+~+{+]+^+",
"/+(+_+:+<+[+}+|+1+2+3+4+5+6+7+8+9+0+a+b+",
"c+d+e+f+g+h+i+j+k+l+m+n+o+p+q+r+s+t+u+v+",
"w+x+y+z+A+B+C+D+E+F+G+H+I+J+K+L+M+N+O+P+",
"Q+R+S+T+U+V+W+X+Y+Z+`+ @.@+@@@#@$@%@&@*@",
"- =@-@;@>@L+,@'@)@!@~@{@]@^@/@(@_@:@<@[@",
"}@|@1@2@3@4@5@6@7@8@9@0@a@b@c@d@e@f@g@h@",
"i@j@k@l@m@n@o@p@q@r@s@t@u@v@w@x@y@z@A@B@",
"C@D@E@F@G@H@I@J@K@L@M@N@O@P@Q@R@S@T@U@V@",
"W@X@Y@Z@`@ #.#+#@###$#%#&#*#=#-#;#>#,#'#"};
