/* XPM */
static char * right_inactive_xpm[] = {
"4 128 5 1",
" 	c None",
".	c #FFFFFF",
"+	c #DDDDDD",
"@	c #BBBBBB",
"#	c #888888",
".+@#",
".+@#",
".+@#",
".+@#",
".+@#",
".+@#",
".+@#",
".+@#",
".+@#",
".+@#",
".+@#",
".+@#",
".+@#",
".+@#",
".+@#",
".+@#",
".+@#",
".+@#",
".+@#",
".+@#",
".+@#",
".+@#",
".+@#",
".+@#",
".+@#",
".+@#",
".+@#",
".+@#",
".+@#",
".+@#",
".+@#",
".+@#",
".+@#",
".+@#",
".+@#",
".+@#",
".+@#",
".+@#",
".+@#",
".+@#",
".+@#",
".+@#",
".+@#",
".+@#",
".+@#",
".+@#",
".+@#",
".+@#",
".+@#",
".+@#",
".+@#",
".+@#",
".+@#",
".+@#",
".+@#",
".+@#",
".+@#",
".+@#",
".+@#",
".+@#",
".+@#",
".+@#",
".+@#",
".+@#",
".+@#",
".+@#",
".+@#",
".+@#",
".+@#",
".+@#",
".+@#",
".+@#",
".+@#",
".+@#",
".+@#",
".+@#",
".+@#",
".+@#",
".+@#",
".+@#",
".+@#",
".+@#",
".+@#",
".+@#",
".+@#",
".+@#",
".+@#",
".+@#",
".+@#",
".+@#",
".+@#",
".+@#",
".+@#",
".+@#",
".+@#",
".+@#",
".+@#",
".+@#",
".+@#",
".+@#",
".+@#",
".+@#",
".+@#",
".+@#",
".+@#",
".+@#",
".+@#",
".+@#",
".+@#",
".+@#",
".+@#",
".+@#",
".+@#",
".+@#",
".+@#",
".+@#",
".+@#",
".+@#",
".+@#",
".+@#",
".+@#",
".+@#",
".+@#",
".+@#",
".+@#",
".+@#",
".+@#",
".+@#"};
