/* XPM */
static char * top_right_active_xpm[] = {
"25 44 5 1",
" 	c None",
".	c #888888",
"+	c #BBBBBB",
"@	c #DDDDDD",
"#	c #FFFFFF",
"........................ ",
"+++++++++++++++++++++++..",
"@@@@@@@@@@@@@@@@@@@@@@++.",
"@@@@@@@@@@@@@@@@@@@@@@@+.",
"@@@@@@@@@@@@@@@@@@@@@@@+.",
"@@@@@@@@@@@@@@@@@@@@@@@+.",
"@@@@@@@@@@@@@@@@@@@@@@@+.",
"@@@@@@@@@@@@@@@@@@@@@@@+.",
"@@@@@@@@@@@@@@@@@@@@@@@+.",
"@@@@@@@@@@@@@@@@@@@@@@@+.",
"@@@@@@@@@@@@@@@@@@@@@@@+.",
"@@@@@@@@@@@@@@@@@@@@@@@+.",
"@@@@@@@@@@@@@@@@@@@@@@@+.",
"@@@@@@@@@@@@@@@@@@@@@@@+.",
"@@@@@@@@@@@@@@@@@@@@@@@+.",
"@@@@@@@@@@@@@@@@@@@@@@@+.",
"@@@@@@@@@@@@@@@@@@@@@@@+.",
"@@@@@@@@@@@@@@@@@@@@@@@+.",
"@@@@@@@@@@@@@@@@@@@@@@@+.",
"@@@@@@@@@@@@@@@@@@@@@@@+.",
"@@@@@@@@@@@@@@@@@@@@@@@+.",
"@@@@@@@@@@@@@@@@@@@@@@@+.",
"######################@+.",
"                     #@+.",
"                     #@+.",
"                     #@+.",
"                     #@+.",
"                     #@+.",
"                     #@+.",
"                     #@+.",
"                     #@+.",
"                     #@+.",
"                     #@+.",
"                     #@+.",
"                     #@+.",
"                     #@+.",
"                     #@+.",
"                     #@+.",
"                     #@+.",
"                     #@+.",
"                     #@+.",
"                     #@+.",
"                     #@+.",
"                     #@+."};
